<svg xmlns="http://www.w3.org/2000/svg" xmlns:xlink="http://www.w3.org/1999/xlink" width="500" zoomAndPan="magnify" viewBox="0 0 375 374.999991" height="500" preserveAspectRatio="xMidYMid meet" version="1.0"><defs><g/></defs><g fill="#ffffff" fill-opacity="1"><g transform="translate(3.902348, 263.624983)"><g><path d="M 19.40625 -49.203125 L 19.40625 -90.796875 L 103 -114 L 103 -90 L 35 -71.796875 L 35 -68.203125 L 103 -50 L 103 -26 Z M 19.40625 -49.203125 "/></g></g></g><g fill="#ffffff" fill-opacity="1"><g transform="translate(126.299087, 263.624983)"><g><path d="M 16.40625 -140 L 104.796875 -140 L 104.796875 -114.796875 L 42.796875 -114.796875 L 42.796875 -82.796875 L 102.40625 -82.796875 L 102.40625 -57.59375 L 42.796875 -57.59375 L 42.796875 -25.203125 L 107.203125 -25.203125 L 107.203125 0 L 16.40625 0 Z M 16.40625 -140 "/></g></g></g><g fill="#ffffff" fill-opacity="1"><g transform="translate(248.695826, 263.624983)"><g><path d="M 19.40625 -26 L 19.40625 -50 L 87.40625 -68.203125 L 87.40625 -71.796875 L 19.40625 -90 L 19.40625 -114 L 103 -90.796875 L 103 -49.203125 Z M 19.40625 -26 "/></g></g></g></svg>