<svg xmlns="http://www.w3.org/2000/svg" xmlns:xlink="http://www.w3.org/1999/xlink" width="500" zoomAndPan="magnify" viewBox="0 0 375 67.499998" height="90" preserveAspectRatio="xMidYMid meet" version="1.0"><defs><g/></defs><g fill="#ffffff" fill-opacity="1"><g transform="translate(5.042945, 59.186577)"><g><path d="M 6.484375 -16.46875 L 6.484375 -30.375 L 34.46875 -38.140625 L 34.46875 -30.109375 L 11.71875 -24.03125 L 11.71875 -22.828125 L 34.46875 -16.734375 L 34.46875 -8.703125 Z M 6.484375 -16.46875 "/></g></g></g><g fill="#ffffff" fill-opacity="1"><g transform="translate(45.992235, 59.186577)"><g><path d="M 5.484375 -46.84375 L 35.0625 -46.84375 L 35.0625 -38.40625 L 14.328125 -38.40625 L 14.328125 -27.703125 L 34.265625 -27.703125 L 34.265625 -19.28125 L 14.328125 -19.28125 L 14.328125 -8.4375 L 35.875 -8.4375 L 35.875 0 L 5.484375 0 Z M 5.484375 -46.84375 "/></g></g></g><g fill="#ffffff" fill-opacity="1"><g transform="translate(86.941524, 59.186577)"><g><path d="M 1.609375 -46.84375 L 10.703125 -46.84375 L 19.875 -4.421875 L 21.078125 -4.421875 L 30.25 -46.84375 L 39.34375 -46.84375 L 28.78125 0 L 12.1875 0 Z M 1.609375 -46.84375 "/></g></g></g><g fill="#ffffff" fill-opacity="1"><g transform="translate(127.890814, 59.186577)"><g><path d="M 5.484375 -46.84375 L 35.0625 -46.84375 L 35.0625 -38.40625 L 14.328125 -38.40625 L 14.328125 -27.703125 L 34.265625 -27.703125 L 34.265625 -19.28125 L 14.328125 -19.28125 L 14.328125 -8.4375 L 35.875 -8.4375 L 35.875 0 L 5.484375 0 Z M 5.484375 -46.84375 "/></g></g></g><g fill="#ffffff" fill-opacity="1"><g transform="translate(168.840103, 59.186577)"><g><path d="M 28.515625 -32.53125 C 28.515625 -34.394531 27.785156 -36.019531 26.328125 -37.40625 C 24.878906 -38.789062 22.835938 -39.484375 20.203125 -39.484375 C 17.972656 -39.484375 16.210938 -39.023438 14.921875 -38.109375 C 13.628906 -37.191406 12.984375 -35.953125 12.984375 -34.390625 C 12.984375 -33.585938 13.140625 -32.863281 13.453125 -32.21875 C 13.765625 -31.570312 14.3125 -30.992188 15.09375 -30.484375 C 15.875 -29.972656 16.898438 -29.515625 18.171875 -29.109375 C 19.441406 -28.710938 21.054688 -28.332031 23.015625 -27.96875 C 27.921875 -27.082031 31.664062 -25.585938 34.25 -23.484375 C 36.84375 -21.390625 38.140625 -18.289062 38.140625 -14.1875 L 38.140625 -13.390625 C 38.140625 -11.203125 37.75 -9.222656 36.96875 -7.453125 C 36.1875 -5.691406 35.0625 -4.1875 33.59375 -2.9375 C 32.125 -1.695312 30.335938 -0.738281 28.234375 -0.0625 C 26.140625 0.601562 23.773438 0.9375 21.140625 0.9375 C 18.066406 0.9375 15.359375 0.503906 13.015625 -0.359375 C 10.671875 -1.234375 8.71875 -2.441406 7.15625 -3.984375 C 5.59375 -5.523438 4.410156 -7.332031 3.609375 -9.40625 C 2.804688 -11.476562 2.40625 -13.738281 2.40625 -16.1875 L 2.40625 -18.203125 L 11.25 -18.203125 L 11.25 -16.59375 C 11.25 -13.78125 12.0625 -11.535156 13.6875 -9.859375 C 15.3125 -8.191406 17.84375 -7.359375 21.28125 -7.359375 C 23.957031 -7.359375 25.941406 -7.9375 27.234375 -9.09375 C 28.523438 -10.257812 29.171875 -11.644531 29.171875 -13.25 C 29.171875 -14.007812 29.035156 -14.734375 28.765625 -15.421875 C 28.503906 -16.117188 28.039062 -16.742188 27.375 -17.296875 C 26.707031 -17.859375 25.789062 -18.359375 24.625 -18.796875 C 23.46875 -19.242188 21.992188 -19.625 20.203125 -19.9375 C 17.835938 -20.34375 15.675781 -20.867188 13.71875 -21.515625 C 11.757812 -22.160156 10.050781 -23.019531 8.59375 -24.09375 C 7.144531 -25.164062 6.019531 -26.503906 5.21875 -28.109375 C 4.414062 -29.710938 4.015625 -31.675781 4.015625 -34 L 4.015625 -34.390625 C 4.015625 -36.316406 4.40625 -38.09375 5.1875 -39.71875 C 5.96875 -41.34375 7.0625 -42.757812 8.46875 -43.96875 C 9.875 -45.175781 11.566406 -46.113281 13.546875 -46.78125 C 15.535156 -47.445312 17.753906 -47.78125 20.203125 -47.78125 C 22.972656 -47.78125 25.425781 -47.390625 27.5625 -46.609375 C 29.707031 -45.828125 31.503906 -44.765625 32.953125 -43.421875 C 34.410156 -42.085938 35.503906 -40.550781 36.234375 -38.8125 C 36.972656 -37.070312 37.34375 -35.242188 37.34375 -33.328125 L 37.34375 -30.921875 L 28.515625 -30.921875 Z M 28.515625 -32.53125 "/></g></g></g><g fill="#ffffff" fill-opacity="1"><g transform="translate(209.789382, 59.186577)"><g><path d="M 4.8125 -46.84375 L 36.140625 -46.84375 L 36.140625 -38.40625 L 24.890625 -38.40625 L 24.890625 -8.4375 L 36.140625 -8.4375 L 36.140625 0 L 4.8125 0 L 4.8125 -8.4375 L 16.0625 -8.4375 L 16.0625 -38.40625 L 4.8125 -38.40625 Z M 4.8125 -46.84375 "/></g></g></g><g fill="#ffffff" fill-opacity="1"><g transform="translate(250.73866, 59.186577)"><g><path d="M 3.21875 -28.640625 C 3.21875 -34.710938 4.742188 -39.421875 7.796875 -42.765625 C 10.847656 -46.109375 15.078125 -47.78125 20.484375 -47.78125 C 25.878906 -47.78125 30.101562 -46.109375 33.15625 -42.765625 C 36.21875 -39.421875 37.75 -34.710938 37.75 -28.640625 L 37.75 -18.203125 C 37.75 -11.953125 36.21875 -7.195312 33.15625 -3.9375 C 30.101562 -0.6875 25.878906 0.9375 20.484375 0.9375 C 15.078125 0.9375 10.847656 -0.6875 7.796875 -3.9375 C 4.742188 -7.195312 3.21875 -11.953125 3.21875 -18.203125 Z M 20.484375 -7.09375 C 22.085938 -7.09375 23.421875 -7.347656 24.484375 -7.859375 C 25.554688 -8.378906 26.425781 -9.101562 27.09375 -10.03125 C 27.769531 -10.96875 28.238281 -12.082031 28.5 -13.375 C 28.769531 -14.675781 28.90625 -16.109375 28.90625 -17.671875 L 28.90625 -29.171875 C 28.90625 -30.648438 28.75 -32.035156 28.4375 -33.328125 C 28.125 -34.617188 27.632812 -35.734375 26.96875 -36.671875 C 26.300781 -37.609375 25.429688 -38.351562 24.359375 -38.90625 C 23.285156 -39.46875 21.992188 -39.75 20.484375 -39.75 C 18.960938 -39.75 17.664062 -39.46875 16.59375 -38.90625 C 15.519531 -38.351562 14.648438 -37.609375 13.984375 -36.671875 C 13.316406 -35.734375 12.828125 -34.617188 12.515625 -33.328125 C 12.203125 -32.035156 12.046875 -30.648438 12.046875 -29.171875 L 12.046875 -17.671875 C 12.046875 -16.109375 12.175781 -14.675781 12.4375 -13.375 C 12.707031 -12.082031 13.175781 -10.96875 13.84375 -10.03125 C 14.519531 -9.101562 15.390625 -8.378906 16.453125 -7.859375 C 17.523438 -7.347656 18.867188 -7.09375 20.484375 -7.09375 Z M 20.484375 -7.09375 "/></g></g></g><g fill="#ffffff" fill-opacity="1"><g transform="translate(291.687938, 59.186577)"><g><path d="M 26.828125 -4.421875 L 28.046875 -4.421875 L 28.046875 -46.84375 L 36.875 -46.84375 L 36.875 0 L 19.609375 0 L 14.125 -42.421875 L 12.921875 -42.421875 L 12.921875 0 L 4.078125 0 L 4.078125 -46.84375 L 21.34375 -46.84375 Z M 26.828125 -4.421875 "/></g></g></g><g fill="#ffffff" fill-opacity="1"><g transform="translate(332.637217, 59.186577)"><g><path d="M 6.484375 -8.703125 L 6.484375 -16.734375 L 29.25 -22.828125 L 29.25 -24.03125 L 6.484375 -30.109375 L 6.484375 -38.140625 L 34.46875 -30.375 L 34.46875 -16.46875 Z M 6.484375 -8.703125 "/></g></g></g></svg>